<?xml version="1.0" standalone="no"?>
<!DOCTYPE svg PUBLIC "-//W3C//DTD SVG 20010904//EN"
 "http://www.w3.org/TR/2001/REC-SVG-20010904/DTD/svg10.dtd">
<svg version="1.0" xmlns="http://www.w3.org/2000/svg"
 width="500.000000pt" height="500.000000pt" viewBox="0 0 500.000000 500.000000"
 preserveAspectRatio="xMidYMid meet">
<metadata>
Created by potrace 1.11, written by Peter Selinger 2001-2013
</metadata>
<g transform="translate(0.000000,500.000000) scale(0.100000,-0.100000)"
fill="#000000" stroke="none">
<path d="M2937 4569 c-70 -16 -150 -62 -207 -118 -31 -31 -149 -166 -261 -301
-203 -244 -218 -263 -260 -310 -11 -14 -48 -58 -81 -97 -34 -40 -63 -73 -67
-73 -3 0 -14 19 -24 43 -37 91 -153 193 -254 223 -148 45 -316 6 -426 -99 -13
-12 -84 -94 -157 -182 -73 -88 -147 -176 -164 -196 -17 -19 -40 -46 -51 -60
-69 -83 -281 -335 -286 -339 -19 -17 -114 -150 -157 -221 -76 -127 -161 -322
-187 -429 -52 -218 -64 -321 -60 -505 5 -208 26 -334 86 -520 40 -125 156
-351 236 -465 161 -225 422 -442 668 -555 126 -58 192 -81 305 -110 163 -42
260 -53 455 -50 208 3 219 5 380 42 352 81 659 265 910 544 17 19 90 106 163
194 73 88 143 171 156 185 12 14 114 135 226 270 113 135 209 250 215 256 5 7
19 22 30 35 11 13 46 56 78 94 32 39 68 81 80 95 12 14 44 52 72 85 27 33 58
69 68 80 181 196 160 493 -46 648 -31 23 -146 81 -154 78 -2 -1 -10 -1 -18 -1
-27 0 -16 24 40 84 6 6 53 63 105 126 52 63 103 123 113 133 62 62 117 199
117 291 0 62 -22 151 -51 208 -49 95 -187 198 -288 214 -34 5 -41 10 -35 23
31 75 45 190 30 260 -43 200 -213 341 -416 344 -128 1 -241 -50 -332 -151 -25
-29 -48 -52 -50 -52 -3 0 -14 22 -27 49 -42 93 -137 179 -241 217 -52 18 -178
25 -233 13z m198 -207 c73 -37 118 -100 130 -183 9 -61 -7 -115 -52 -177 -33
-44 -428 -519 -443 -532 -6 -6 -272 -323 -363 -434 -32 -39 -63 -73 -68 -77
-9 -5 0 -15 84 -83 41 -33 50 -37 61 -25 7 8 46 55 87 104 40 50 76 92 79 95
3 3 27 32 55 65 27 33 52 62 55 65 3 3 31 37 62 75 31 39 65 79 75 90 10 11
88 103 173 205 85 102 162 194 172 205 9 11 54 65 100 120 45 55 87 105 93
111 5 6 60 70 120 142 90 108 119 135 160 153 127 57 273 -2 321 -129 21 -53
15 -156 -12 -198 -16 -24 -197 -248 -214 -264 -3 -3 -75 -88 -160 -190 -84
-102 -156 -187 -159 -190 -3 -3 -23 -26 -44 -52 -21 -26 -43 -53 -50 -60 -7
-7 -115 -137 -241 -288 -127 -151 -249 -297 -273 -325 -24 -27 -43 -52 -43
-56 0 -6 125 -109 132 -109 3 0 47 51 99 113 51 61 96 114 99 117 3 3 116 138
252 300 562 673 570 682 623 709 169 87 367 -55 341 -245 -8 -59 -24 -87 -108
-186 -25 -29 -76 -89 -113 -133 -36 -44 -84 -100 -104 -125 -21 -25 -66 -79
-100 -120 -34 -41 -75 -89 -89 -106 -15 -17 -45 -52 -67 -79 -33 -40 -184
-220 -365 -435 -21 -25 -79 -94 -129 -155 l-91 -109 27 -22 c16 -12 44 -36 63
-53 19 -17 40 -31 45 -30 6 0 38 35 73 77 34 43 72 89 85 102 12 14 103 122
201 240 233 280 268 316 329 336 115 38 241 -15 293 -125 11 -21 18 -61 18
-96 1 -72 -22 -125 -91 -206 -55 -63 -337 -400 -663 -789 -122 -146 -232 -276
-243 -290 -12 -14 -57 -68 -101 -120 -251 -299 -529 -478 -871 -560 -73 -17
-105 -23 -205 -35 -53 -7 -237 -7 -310 1 -283 27 -594 155 -815 334 -78 63
-246 245 -301 325 -178 261 -264 530 -270 845 -5 288 38 486 160 731 82 166
125 221 640 829 11 14 52 63 91 110 38 47 89 104 113 128 117 112 302 82 375
-62 29 -56 33 -126 12 -186 -12 -33 -106 -164 -145 -200 -8 -8 -300 -356 -347
-415 l-43 -53 43 -35 c23 -19 53 -44 66 -56 20 -17 27 -19 37 -9 6 7 75 90
153 183 79 94 150 179 159 190 71 84 567 675 826 985 239 285 251 298 310 326
61 28 142 27 201 -4z"/>
</g>
</svg>
