<?xml version="1.0" standalone="no"?>
<!DOCTYPE svg PUBLIC "-//W3C//DTD SVG 20010904//EN"
 "http://www.w3.org/TR/2001/REC-SVG-20010904/DTD/svg10.dtd">
<svg version="1.0" xmlns="http://www.w3.org/2000/svg"
 width="500.000000pt" height="500.000000pt" viewBox="0 0 500.000000 500.000000"
 preserveAspectRatio="xMidYMid meet">
<metadata>
Created by potrace 1.11, written by Peter Selinger 2001-2013
</metadata>
<g transform="translate(0.000000,500.000000) scale(0.100000,-0.100000)"
fill="#000000" stroke="none">
<path d="M2908 4465 c-55 -15 -120 -52 -164 -92 -16 -16 -98 -118 -180 -228
-83 -110 -210 -278 -281 -372 l-131 -173 -30 54 c-109 192 -372 241 -554 101
-54 -40 -650 -828 -720 -950 -92 -161 -159 -346 -195 -538 -26 -142 -24 -409
5 -554 64 -321 193 -566 416 -789 221 -221 460 -348 771 -411 138 -28 444 -25
585 6 320 68 577 207 806 435 104 104 188 210 610 771 269 357 503 677 519
710 28 55 30 67 30 165 -1 125 -18 172 -92 251 -51 55 -113 91 -187 110 -25 6
-46 13 -46 15 0 3 62 87 137 187 164 218 187 265 187 387 1 72 -4 94 -27 145
-15 32 -39 74 -53 92 -38 51 -120 100 -196 120 -61 16 -68 20 -63 38 47 156
20 287 -81 395 -65 70 -140 103 -244 108 -68 3 -97 0 -143 -16 -74 -27 -147
-80 -193 -144 l-37 -50 -15 28 c-84 167 -259 247 -434 199z m177 -174 c103
-46 149 -165 106 -273 -5 -15 -182 -255 -392 -534 l-382 -507 24 -18 c82 -63
100 -73 113 -58 7 8 219 289 471 624 252 336 479 634 504 664 53 63 106 91
176 91 138 0 232 -124 196 -260 -9 -35 -124 -194 -518 -718 -278 -370 -504
-674 -502 -676 61 -49 122 -87 128 -80 4 5 194 257 420 559 227 303 430 566
451 586 89 82 218 76 297 -14 56 -64 67 -148 29 -227 -9 -19 -230 -318 -491
-665 -261 -346 -475 -632 -475 -635 1 -13 123 -92 128 -83 42 62 497 655 518
675 79 74 206 76 282 5 62 -57 83 -170 45 -245 -10 -20 -238 -329 -508 -687
-531 -706 -598 -784 -773 -903 -179 -122 -382 -204 -592 -238 -126 -21 -378
-14 -500 15 -521 120 -900 510 -1017 1044 -26 118 -25 428 1 547 29 134 73
255 139 384 50 96 118 194 355 510 161 215 313 409 337 432 77 72 169 81 258
24 77 -48 110 -165 73 -254 -7 -18 -111 -162 -231 -321 l-218 -288 24 -18 c82
-64 100 -73 113 -58 8 8 269 354 581 769 312 415 584 771 605 791 64 59 150
74 225 40z"/>
</g>
</svg>
